<svg xmlns="http://www.w3.org/2000/svg" fill="none" viewBox="0 0 128 128">
    <path class="st0" d="M40.8,88.9c-4.1,0-7.7-0.7-10.9-2.2c-3.1-1.5-5.6-3.6-7.4-6.3c-1.8-2.7-2.7-6-2.7-9.9v-2.1h9.9v2.1
		c0,3.2,1,5.6,3,7.2c2,1.6,4.7,2.4,8.1,2.4c3.5,0,6-0.7,7.7-2.1c1.7-1.4,2.6-3.1,2.6-5.3c0-1.5-0.4-2.7-1.3-3.6
		c-0.8-0.9-2.1-1.7-3.7-2.2c-1.6-0.6-3.5-1.1-5.8-1.6l-1.8-0.4c-3.7-0.8-6.8-1.8-9.4-3.1c-2.6-1.2-4.6-2.9-6-4.9
		c-1.4-2-2.1-4.7-2.1-7.9c0-3.2,0.8-6,2.3-8.3c1.5-2.3,3.7-4.1,6.6-5.3c2.8-1.2,6.1-1.9,9.9-1.9S47,34.1,50,35.3
		c3,1.3,5.3,3.2,7,5.8c1.7,2.6,2.6,5.8,2.6,9.6v2.3h-9.9v-2.3c0-2-0.4-3.7-1.2-4.9c-0.8-1.2-1.9-2.2-3.4-2.7
		c-1.5-0.6-3.2-0.9-5.3-0.9c-3,0-5.3,0.6-6.7,1.7c-1.4,1.1-2.2,2.7-2.2,4.7c0,1.3,0.3,2.4,1,3.4c0.7,0.9,1.7,1.7,3.1,2.3
		c1.4,0.6,3.1,1.1,5.3,1.6l1.8,0.4c3.8,0.8,7.1,1.9,9.9,3.1c2.8,1.3,5,2.9,6.6,5c1.6,2.1,2.4,4.8,2.4,8c0,3.3-0.8,6.1-2.5,8.6
		c-1.7,2.5-4,4.4-7,5.8C48.4,88.2,44.9,88.9,40.8,88.9z"/>
	<path class="st0" d="M64.8,87.8l14-53.3h17.5l14,53.3H100l-2.9-11.7H78l-2.9,11.7H64.8z M80.4,66.8h14.3l-6.5-26h-1.4L80.4,66.8z"
		/>
    <style>
        path { fill: #000; }
        @media (prefers-color-scheme: dark) {
            path { fill: #FFF; }
        }
    </style>
</svg>
